<svg width="38" height="26" viewBox="0 0 38 26" fill="none" xmlns="http://www.w3.org/2000/svg">
<path d="M19.0003 0.5C10.667 0.5 3.55033 5.68333 0.666992 13C3.55033 20.3167 10.667 25.5 19.0003 25.5C27.3337 25.5 34.4503 20.3167 37.3337 13C34.4503 5.68333 27.3337 0.5 19.0003 0.5ZM19.0003 21.3333C14.4003 21.3333 10.667 17.6 10.667 13C10.667 8.4 14.4003 4.66667 19.0003 4.66667C23.6003 4.66667 27.3337 8.4 27.3337 13C27.3337 17.6 23.6003 21.3333 19.0003 21.3333ZM19.0003 8C16.2337 8 14.0003 10.2333 14.0003 13C14.0003 15.7667 16.2337 18 19.0003 18C21.767 18 24.0003 15.7667 24.0003 13C24.0003 10.2333 21.767 8 19.0003 8Z" fill="black"/>
</svg>
